0
SECTION
2
HEADER
9
$INSUNITS
70
4
9
$ACADVER
1
AC1014
9
$HANDSEED
5
FFFF
0
ENDSEC
0
SECTION
2
TABLES
0
TABLE
2
VPORT
5
8
100
AcDbSymbolTable
0
ENDTAB
0
TABLE
2
LTYPE
5
5
100
AcDbSymbolTable
0
LTYPE
5
14
100
AcDbSymbolTableRecord
100
AcDbLinetypeTableRecord
2
BYBLOCK
70
0
0
LTYPE
5
15
100
AcDbSymbolTableRecord
100
AcDbLinetypeTableRecord
2
BYLAYER
70
0
0
LTYPE
5
16
100
AcDbSymbolTableRecord
100
AcDbLinetypeTableRecord
2
DASHED
70
0
3
Dashed __ __ __ __ __ __ __ __ __ __ __ __ __ _
72
65
73
2
40
0.75
49
0.5
74
0
49
-0.25
74
0
0
ENDTAB
0
TABLE
2
LAYER
5
2
100
AcDbSymbolTable
70
2
0
LAYER
5
50
100
AcDbSymbolTableRecord
100
AcDbLayerTableRecord
2
0
70
0
62
7
6
CONTINUOUS
0
ENDTAB
0
TABLE
2
STYLE
5
3
100
AcDbSymbolTable
70
1
0
STYLE
5
11
100
AcDbSymbolTableRecord
100
AcDbTextStyleTableRecord
2
STANDARD
70
0
0
ENDTAB
0
TABLE
2
VIEW
5
6
100
AcDbSymbolTable
70
0
0
ENDTAB
0
TABLE
2
UCS
5
7
100
AcDbSymbolTable
70
0
0
ENDTAB
0
TABLE
2
APPID
5
9
100
AcDbSymbolTable
70
2
0
APPID
5
12
100
AcDbSymbolTableRecord
100
AcDbRegAppTableRecord
2
ACAD
70
0
0
ENDTAB
0
TABLE
2
DIMSTYLE
5
A
100
AcDbSymbolTable
70
1
0
ENDTAB
0
TABLE
2
BLOCK_RECORD
5
1
100
AcDbSymbolTable
70
1
0
BLOCK_RECORD
5
1F
100
AcDbSymbolTableRecord
100
AcDbBlockTableRecord
2
*MODEL_SPACE
0
BLOCK_RECORD
5
1B
100
AcDbSymbolTableRecord
100
AcDbBlockTableRecord
2
*PAPER_SPACE
0
ENDTAB
0
ENDSEC
0
SECTION
2
BLOCKS
0
BLOCK
5
20
100
AcDbEntity
100
AcDbBlockBegin
2
*MODEL_SPACE
0
ENDBLK
5
21
100
AcDbEntity
100
AcDbBlockEnd
0
BLOCK
5
1C
100
AcDbEntity
100
AcDbBlockBegin
2
*PAPER_SPACE
0
ENDBLK
5
1D
100
AcDbEntity
100
AcDbBlockEnd
0
ENDSEC
0
SECTION
2
ENTITIES
0
LWPOLYLINE
5
100
100
AcDbEntity
8
0
100
AcDbPolyline
90
8
70
1
43
0.0
10
0
20
0
10
120
20
0
10
190
20
2.4492935982947077e-15
10
190
20
200
10
120
20
200
10
120
20
0
10
120
20
200
10
2.9582283945787943e-30
20
200
0
LWPOLYLINE
5
101
100
AcDbEntity
8
0
100
AcDbPolyline
90
4
70
1
43
0.0
10
2.9582283945787943e-30
20
200
10
120.00000000000001
20
200
10
120
20
270
10
2.4651903288156619e-30
20
270
0
LINE
5
102
100
AcDbEntity
8
0
100
AcDbLine
10
0
20
0
30
0
11
35
21
0
31
0
0
LINE
5
103
100
AcDbEntity
8
0
100
AcDbLine
10
25
20
0
30
0
11
40.559177327592892
21
0
31
0
0
LWPOLYLINE
5
104
100
AcDbEntity
8
0
100
AcDbPolyline
90
4
70
1
43
0.0
10
0
20
0
10
120
20
0
10
120
20
-70
10
-1.2325951644078309e-31
20
-70
0
LWPOLYLINE
5
105
100
AcDbEntity
8
0
100
AcDbPolyline
90
4
70
1
43
0.0
10
0
20
0
10
-70
20
-2.4492935982947065e-15
10
-70
20
200
10
0
20
200
0
LINE
5
106
100
AcDbEntity
8
0
100
AcDbLine
10
120
20
200
30
0
11
128.75
21
200
31
0
0
LINE
5
107
100
AcDbEntity
8
0
100
AcDbLine
10
128.75
20
200
30
0
11
128.75
21
208.75
31
0
0
LWPOLYLINE
5
108
100
AcDbEntity
8
0
100
AcDbPolyline
90
2
70
1
43
0.0
10
128.75
20
208.75
10
120
20
208.75
0
LINE
5
109
100
AcDbEntity
8
0
100
AcDbLine
10
128.75
20
200
30
0
11
137.5
21
200
31
0
0
LINE
5
110
100
AcDbEntity
8
0
100
AcDbLine
10
146.25
20
208.75
30
0
11
137.5
21
208.75
31
0
0
LINE
5
111
100
AcDbEntity
8
0
100
AcDbLine
10
146.25
20
200
30
0
11
146.25
21
208.75
31
0
0
LINE
5
112
100
AcDbEntity
8
0
100
AcDbLine
10
137.5
20
200
30
0
11
146.25
21
200
31
0
0
LINE
5
113
100
AcDbEntity
8
0
100
AcDbLine
10
146.25
20
200
30
0
11
155
21
200
31
0
0
LINE
5
114
100
AcDbEntity
8
0
100
AcDbLine
10
163.75
20
208.75
30
0
11
155
21
208.75
31
0
0
LINE
5
115
100
AcDbEntity
8
0
100
AcDbLine
10
163.75
20
200
30
0
11
163.75
21
208.75
31
0
0
LINE
5
116
100
AcDbEntity
8
0
100
AcDbLine
10
155
20
200
30
0
11
163.75
21
200
31
0
0
LINE
5
117
100
AcDbEntity
8
0
100
AcDbLine
10
163.75
20
200
30
0
11
172.5
21
200
31
0
0
LINE
5
118
100
AcDbEntity
8
0
100
AcDbLine
10
181.25
20
208.75
30
0
11
172.5
21
208.75
31
0
0
LINE
5
119
100
AcDbEntity
8
0
100
AcDbLine
10
181.25
20
200
30
0
11
181.25
21
208.75
31
0
0
LINE
5
120
100
AcDbEntity
8
0
100
AcDbLine
10
172.5
20
200
30
0
11
181.25
21
200
31
0
0
LINE
5
121
100
AcDbEntity
8
0
100
AcDbLine
10
181.25
20
200
30
0
11
190
21
200
31
0
0
LINE
5
122
100
AcDbEntity
8
0
100
AcDbLine
10
120
20
200
30
0
11
120
21
208.75
31
0
0
LINE
5
123
100
AcDbEntity
8
0
100
AcDbLine
10
137.5
20
200
30
0
11
137.5
21
208.75
31
0
0
LINE
5
124
100
AcDbEntity
8
0
100
AcDbLine
10
155
20
200
30
0
11
155
21
208.75
31
0
0
LINE
5
125
100
AcDbEntity
8
0
100
AcDbLine
10
172.5
20
200
30
0
11
172.5
21
208.75
31
0
0
LINE
5
126
100
AcDbEntity
8
0
100
AcDbLine
10
120
20
270
30
0
11
128.74999999999997
21
270
31
0
0
LINE
5
127
100
AcDbEntity
8
0
100
AcDbLine
10
128.74999999999997
20
270
30
0
11
123.60071052383638
21
270
31
0
0
LINE
5
128
100
AcDbEntity
8
0
100
AcDbLine
10
128.74999999999997
20
270
30
0
11
128.74999999999997
21
261.25
31
0
0
LINE
5
129
100
AcDbEntity
8
0
100
AcDbLine
10
128.74999999999997
20
261.25
30
0
11
119.99999999999999
21
261.25
31
0
0
LINE
5
130
100
AcDbEntity
8
0
100
AcDbLine
10
119.99999999999999
20
261.25
30
0
11
120
21
270
31
0
0
LINE
5
131
100
AcDbEntity
8
0
100
AcDbLine
10
119.99999999999999
20
261.25
30
0
11
119.99999999999999
21
252.5
31
0
0
LINE
5
132
100
AcDbEntity
8
0
100
AcDbLine
10
120
20
252.5
30
0
11
128.74999999999997
21
252.5
31
0
0
LINE
5
133
100
AcDbEntity
8
0
100
AcDbLine
10
128.74999999999997
20
252.5
30
0
11
128.74999999999997
21
243.75
31
0
0
LINE
5
134
100
AcDbEntity
8
0
100
AcDbLine
10
128.74999999999997
20
243.75
30
0
11
119.99999999999999
21
243.75
31
0
0
LINE
5
135
100
AcDbEntity
8
0
100
AcDbLine
10
119.99999999999999
20
243.75
30
0
11
119.99999999999999
21
235
31
0
0
LINE
5
136
100
AcDbEntity
8
0
100
AcDbLine
10
120
20
235
30
0
11
128.74999999999997
21
235
31
0
0
LINE
5
137
100
AcDbEntity
8
0
100
AcDbLine
10
128.74999999999997
20
235
30
0
11
128.74999999999997
21
226.25
31
0
0
LINE
5
138
100
AcDbEntity
8
0
100
AcDbLine
10
128.74999999999997
20
226.25
30
0
11
119.99999999999999
21
226.25
31
0
0
LINE
5
139
100
AcDbEntity
8
0
100
AcDbLine
10
119.99999999999999
20
226.25
30
0
11
119.99999999999999
21
217.5
31
0
0
LINE
5
140
100
AcDbEntity
8
0
100
AcDbLine
10
120
20
217.5
30
0
11
128.74999999999997
21
217.5
31
0
0
LINE
5
141
100
AcDbEntity
8
0
100
AcDbLine
10
128.74999999999997
20
217.5
30
0
11
128.74999999999997
21
208.75
31
0
0
LINE
5
142
100
AcDbEntity
8
0
100
AcDbLine
10
128.74999999999997
20
208.75
30
0
11
119.99999999999999
21
208.75
31
0
0
LINE
5
143
100
AcDbEntity
8
0
100
AcDbLine
10
119.99999999999999
20
208.75
30
0
11
119.99999999999999
21
200
31
0
0
LINE
5
144
100
AcDbEntity
8
0
100
AcDbLine
10
0
20
0
30
0
11
-1.6290336997637643e-32
21
-9.0000001341104507
31
0
0
LINE
5
145
100
AcDbEntity
8
0
100
AcDbLine
10
0
20
0
30
0
11
-4.0416551443400433e-33
21
-2.2952861431978988
31
0
0
LINE
5
146
100
AcDbEntity
8
0
100
AcDbLine
10
0
20
0
30
0
11
-8.7499999999999893
21
-1.1102230246251565e-15
31
0
0
LINE
5
147
100
AcDbEntity
8
0
100
AcDbLine
10
-8.7499999999999893
20
-1.1102230246251565e-15
30
0
11
-8.7499999999999893
21
-8.7499999999999982
31
0
0
LINE
5
148
100
AcDbEntity
8
0
100
AcDbLine
10
-8.7499999999999893
20
-8.7499999999999982
30
0
11
0
21
-8.75
31
0
0
LINE
5
149
100
AcDbEntity
8
0
100
AcDbLine
10
0
20
-8.75
30
0
11
0
21
0
31
0
0
LINE
5
150
100
AcDbEntity
8
0
100
AcDbLine
10
-8.7499999999999893
20
-1.1102230246251565e-15
30
0
11
-17.499999999999993
21
6.8477509133768389e-33
31
0
0
LINE
5
151
100
AcDbEntity
8
0
100
AcDbLine
10
-26.249999999999993
20
-1.1102230246251565e-15
30
0
11
-26.249999999999993
21
-8.7499999999999982
31
0
0
LINE
5
152
100
AcDbEntity
8
0
100
AcDbLine
10
-26.249999999999993
20
-8.7499999999999982
30
0
11
-17.5
21
-8.75
31
0
0
LINE
5
153
100
AcDbEntity
8
0
100
AcDbLine
10
-17.5
20
-8.75
30
0
11
-17.5
21
0
31
0
0
LINE
5
154
100
AcDbEntity
8
0
100
AcDbLine
10
-17.5
20
0
30
0
11
-26.249999999999993
21
-1.1102230246251565e-15
31
0
0
LINE
5
155
100
AcDbEntity
8
0
100
AcDbLine
10
-26.249999999999993
20
-1.1102230246251565e-15
30
0
11
-34.999999999999993
21
6.8477509133768389e-33
31
0
0
LINE
5
156
100
AcDbEntity
8
0
100
AcDbLine
10
-43.749999999999993
20
-1.1102230246251565e-15
30
0
11
-43.749999999999993
21
-8.7499999999999982
31
0
0
LINE
5
157
100
AcDbEntity
8
0
100
AcDbLine
10
-43.749999999999993
20
-8.7499999999999982
30
0
11
-35
21
-8.75
31
0
0
LINE
5
158
100
AcDbEntity
8
0
100
AcDbLine
10
-35
20
-8.75
30
0
11
-35
21
0
31
0
0
LINE
5
159
100
AcDbEntity
8
0
100
AcDbLine
10
-35
20
0
30
0
11
-43.749999999999993
21
-1.1102230246251565e-15
31
0
0
LINE
5
160
100
AcDbEntity
8
0
100
AcDbLine
10
-43.749999999999993
20
-1.1102230246251565e-15
30
0
11
-52.499999999999993
21
6.8477509133768389e-33
31
0
0
LINE
5
161
100
AcDbEntity
8
0
100
AcDbLine
10
-61.249999999999993
20
-1.1102230246251565e-15
30
0
11
-61.249999999999993
21
-8.7499999999999982
31
0
0
LINE
5
162
100
AcDbEntity
8
0
100
AcDbLine
10
-61.249999999999993
20
-8.7499999999999982
30
0
11
-52.5
21
-8.75
31
0
0
LINE
5
163
100
AcDbEntity
8
0
100
AcDbLine
10
-52.5
20
-8.75
30
0
11
-52.5
21
0
31
0
0
LINE
5
164
100
AcDbEntity
8
0
100
AcDbLine
10
-52.5
20
0
30
0
11
-61.249999999999993
21
-1.1102230246251565e-15
31
0
0
LINE
5
165
100
AcDbEntity
8
0
100
AcDbLine
10
-61.249999999999993
20
-1.1102230246251565e-15
30
0
11
-69.999999999999986
21
6.8477509133768389e-33
31
0
0
LINE
5
166
100
AcDbEntity
8
0
100
AcDbLine
10
-1.2325951644078309e-31
20
-70
30
0
11
-5.3578297462696677e-16
21
-61.25
31
0
0
LINE
5
167
100
AcDbEntity
8
0
100
AcDbLine
10
-5.3578297462696677e-16
20
-61.25
30
0
11
-8.75
21
-61.25
31
0
0
LINE
5
168
100
AcDbEntity
8
0
100
AcDbLine
10
-8.75
20
-61.25
30
0
11
-8.75
21
-70
31
0
0
LINE
5
169
100
AcDbEntity
8
0
100
AcDbLine
10
-8.75
20
-70
30
0
11
0
21
-70
31
0
0
LINE
5
170
100
AcDbEntity
8
0
100
AcDbLine
10
-5.3578297462696677e-16
20
-61.25
30
0
11
-1.0715659492539341e-15
21
-52.5
31
0
0
LINE
5
171
100
AcDbEntity
8
0
100
AcDbLine
10
-8.75
20
-52.5
30
0
11
0
21
-52.5
31
0
0
LINE
5
172
100
AcDbEntity
8
0
100
AcDbLine
10
-8.75
20
-43.75
30
0
11
-8.75
21
-52.5
31
0
0
LINE
5
173
100
AcDbEntity
8
0
100
AcDbLine
10
-5.3578297462696677e-16
20
-43.75
30
0
11
-8.75
21
-43.75
31
0
0
LINE
5
174
100
AcDbEntity
8
0
100
AcDbLine
10
-1.2325951644078309e-31
20
-52.5
30
0
11
-5.3578297462696677e-16
21
-43.75
31
0
0
LINE
5
175
100
AcDbEntity
8
0
100
AcDbLine
10
-5.3578297462696677e-16
20
-43.75
30
0
11
-1.0715659492539341e-15
21
-35
31
0
0
LINE
5
176
100
AcDbEntity
8
0
100
AcDbLine
10
-8.75
20
-35
30
0
11
0
21
-35
31
0
0
LINE
5
177
100
AcDbEntity
8
0
100
AcDbLine
10
-8.75
20
-26.25
30
0
11
-8.75
21
-35
31
0
0
LINE
5
178
100
AcDbEntity
8
0
100
AcDbLine
10
-5.3578297462696677e-16
20
-26.25
30
0
11
-8.75
21
-26.25
31
0
0
LINE
5
179
100
AcDbEntity
8
0
100
AcDbLine
10
-1.2325951644078309e-31
20
-35
30
0
11
-5.3578297462696677e-16
21
-26.25
31
0
0
LINE
5
180
100
AcDbEntity
8
0
100
AcDbLine
10
-5.3578297462696677e-16
20
-26.25
30
0
11
-1.0715659492539341e-15
21
-17.5
31
0
0
LINE
5
181
100
AcDbEntity
8
0
100
AcDbLine
10
-8.75
20
-17.5
30
0
11
0
21
-17.5
31
0
0
LINE
5
182
100
AcDbEntity
8
0
100
AcDbLine
10
-8.75
20
-8.75
30
0
11
-8.75
21
-17.5
31
0
0
LINE
5
183
100
AcDbEntity
8
0
100
AcDbLine
10
-5.3578297462696677e-16
20
-8.75
30
0
11
-8.75
21
-8.75
31
0
0
LINE
5
184
100
AcDbEntity
8
0
100
AcDbLine
10
-1.2325951644078309e-31
20
-17.5
30
0
11
-5.3578297462696677e-16
21
-8.75
31
0
0
LINE
5
185
100
AcDbEntity
8
0
100
AcDbLine
10
-5.3578297462696677e-16
20
-8.75
30
0
11
-1.0715659492539341e-15
21
0
31
0
0
LWPOLYLINE
5
186
100
AcDbEntity
8
0
100
AcDbPolyline
90
5
70
1
43
0.0
10
115.60772133674308
20
23.431040545526926
10
99.341339130550665
20
18.1350091295573
10
104.82651452566205
20
15.297849442430715
10
110.74906319336677
20
12.23446220051448
10
116.9317291907355
20
16.716429285994007
0
LWPOLYLINE
5
187
100
AcDbEntity
8
0
100
AcDbPolyline
90
9
70
1
43
0.0
10
110.50083389991525
20
28.53792798235478
10
120
20
30.411002988005308
10
126.01064018954055
20
25.889912274369962
10
132.81982343864433
20
30.411002988005308
10
132.81982343864433
20
39.12999081429404
10
126.01064018954055
20
39.12999081429404
10
121.66032866927978
20
34.77049690114967
10
112.7705616496165
20
36.950243857721851
10
99.341339130550665
20
34.77049690114967
0
LWPOLYLINE
5
188
100
AcDbEntity
8
0
100
AcDbPolyline
90
7
70
1
43
0.0
10
110.50083389991525
20
4.3274986522079129
10
101.61106688025193
20
-6.6428521380148808
10
98.861029496096251
20
-10.036515292930375
10
91.397292006596231
20
-8.3396837154726278
10
87.614412423760768
20
6.0297944644838664
10
92.974114054133778
20
12.643894348773943
10
94.715328529549822
20
6.0297944644838664
0
LWPOLYLINE
5
189
100
AcDbEntity
8
0
100
AcDbPolyline
90
6
70
1
43
0.0
10
123.46780251696944
20
20.329289711551361
10
122.6390158525715
20
12.643894348773943
10
125.63235223125702
20
9.336844406628904
10
136.41355904233805
20
5.1786465583458892
10
139.84184328871942
20
14.067362972518048
10
129.03694385580891
20
14.067362972518048
0
LWPOLYLINE
5
190
100
AcDbEntity
8
0
100
AcDbPolyline
90
6
70
1
43
0.0
10
101.61106688025193
20
26.646488190937056
10
92.974114054133778
20
23.80932850381047
10
92.974114054133778
20
17.198326342034704
10
80.048653258089871
20
23.80932850381047
10
82.885812945216458
20
39.12999081429404
10
88.560132319469631
20
25.227908347373763
0
LWPOLYLINE
5
191
100
AcDbEntity
8
0
100
AcDbPolyline
90
5
70
1
43
0.0
10
81.467233101653164
20
5.0840745687750033
10
85.98883340627097
20
0
10
83.728033253962067
20
-2.0106775616831634
10
74.563477862978473
20
-5.5079882631642541
10
77.778925508388596
20
0
0
LWPOLYLINE
5
192
100
AcDbEntity
8
0
100
AcDbPolyline
90
6
70
1
43
0.0
10
106.05595039008358
20
-11.606470198114103
10
93.151630322815663
20
-15.003635237894947
10
89.505852215178493
20
-21.581202150233125
10
97.84665079916681
20
-26.204294744042414
10
102.23200253754939
20
-18.292418694064033
10
106.05595039008358
20
-15.644046902094315
0
LWPOLYLINE
5
193
100
AcDbEntity
8
0
100
AcDbPolyline
90
5
70
1
43
0.0
10
112.99065733864899
20
-19.681623606074538
10
104.14397646381647
20
-25.80861617631512
10
104.14397646381647
20
-31.794353718015202
10
108.56731690123272
20
-26.33576339099092
10
111.15539520047614
20
-26.33576339099092
0
LWPOLYLINE
5
194
100
AcDbEntity
8
0
100
AcDbPolyline
90
6
70
1
43
0.0
10
132.81148843091549
20
21.428248288996787
10
135.26503362428716
20
31.434659847698619
10
143.17682543791682
20
29.494709780543189
10
145.29127097049073
20
26.431454068347705
10
164.16371048363672
20
29.494709780543189
10
149.87942631592279
20
21.611774502814072
0
LWPOLYLINE
5
195
100
AcDbEntity
8
0
100
AcDbPolyline
90
8
70
1
43
0.0
10
145.29127097049073
20
36.950243857721851
10
160.52394671732515
20
50.425390072127449
10
158.68868457915235
20
43.68781696492465
10
171.90257197399666
20
57.949964838636035
10
163.4603661384017
20
41.616131808897883
10
145.29127097049073
20
32.072768690399187
10
152.90760884390792
20
41.616131808897883
10
147.12653310866352
20
36.950243857721851
0
LWPOLYLINE
5
196
100
AcDbEntity
8
0
100
AcDbPolyline
90
4
70
1
43
0.0
10
154.7274907270637
20
17.023619157382008
10
165.66268070420909
20
25.553242141678631
10
174.65546518125592
20
25.553242141678631
10
165.66268070420909
20
14.087199736305482
0
LWPOLYLINE
5
197
100
AcDbEntity
8
0
100
AcDbPolyline
90
5
70
1
43
0.0
10
174.65546518125592
20
46.571339581964509
10
170.15907294273251
20
34.275083256206578
10
177.17829948489589
20
28.769923824765648
10
181.49598038371505
20
34.275083256206578
10
175.38957003652507
20
36.293871608196689
0
LWPOLYLINE
5
198
100
AcDbEntity
8
0
100
AcDbPolyline
90
4
70
1
43
0.0
10
174.65546518125592
20
12.251937598132647
10
179.33713993430544
20
18.221198996940117
10
184.56588072738919
20
19.820220938992058
10
184.56588072738919
20
15.236568297536381
0
LWPOLYLINE
5
199
100
AcDbEntity
8
0
100
AcDbPolyline
90
3
70
1
43
0.0
10
155
20
10.778561791971351
10
143.8940218900253
20
7.3821986161015012
10
143.63953504613517
20
13.744252947834514
0
LWPOLYLINE
5
200
100
AcDbEntity
8
0
100
AcDbPolyline
90
6
70
1
43
0.0
10
75.551309719923296
20
16.716429285994007
10
61.786843683627097
20
9.336844406628904
10
63.911261796788509
20
5.3743612258651492
10
68.669076701775197
20
5.3743612258651492
10
71.880054451704453
20
9.336844406628904
10
81.057096134441764
20
11.150780315228971
0
LWPOLYLINE
5
201
100
AcDbEntity
8
0
100
AcDbPolyline
90
6
70
1
43
0.0
10
60
20
-3.3477905763363713
10
66.374999029059168
20
-14.542889619190614
10
72.798416512664062
20
-14.542889619190614
10
69.586707770861608
20
-8.9453400977634914
10
66.374999029059168
20
-1.157676742903484
10
63.187499514529584
20
-2.972784070892958
0
LWPOLYLINE
5
202
100
AcDbEntity
8
0
100
AcDbPolyline
90
6
70
1
43
0.0
10
71.697259229760363
20
-20.966307102795504
10
75.605810718807774
20
-30.443655657370748
10
78.867003308477422
20
-29.098707850605724
10
83.17845419343638
20
-31.488435459313333
10
83.17845419343638
20
-25.704981380083129
10
79.698804613198149
20
-23.776300086383944
0
LWPOLYLINE
5
203
100
AcDbEntity
8
0
100
AcDbPolyline
90
4
70
1
43
0.0
10
79.698804613198149
20
-9.9547342737585396
10
79.698804613198149
20
-13.808784763921484
10
81.438629403317265
20
-17.109745651364946
10
85.461725266056561
20
-13.808784763921484
0
LWPOLYLINE
5
204
100
AcDbEntity
8
0
100
AcDbPolyline
90
9
70
1
43
0.0
10
88.398144687133069
20
-30.142617793659646
10
85.461725266056561
20
-43.723557616138571
10
91.328741268997078
20
-49.229344030657046
10
93.243923830550187
20
-40.371624683473883
10
99.673106665068033
20
-57.059950528481394
10
106.1483225293598
20
-54.565371559258047
10
102.91071459721391
20
-40.371624683473883
10
91.147262170683035
20
-34.929288718358762
10
91.147262170683035
20
-26.472093517313994
0
LWPOLYLINE
5
205
100
AcDbEntity
8
0
100
AcDbPolyline
90
3
70
1
43
0.0
10
108.4025019932169
20
-37.650456700916315
10
110.42129034520701
20
-48.678765389205196
10
114.55123390999192
20
-43.164611045060752
0
LWPOLYLINE
5
206
100
AcDbEntity
8
0
100
AcDbPolyline
90
6
70
1
43
0.0
10
104.73197771687126
20
-58.405654721521181
10
104.73197771687126
20
-61.158547928780422
10
104.73197771687126
20
-62.810283853135971
10
109.41189616921196
20
-62.810283853135971
10
111.47686795160442
20
-60.50767186348078
10
109.41189616921196
20
-54.001025589906391
0
LWPOLYLINE
5
207
100
AcDbEntity
8
0
100
AcDbPolyline
90
5
70
1
43
0.0
10
92.986300032565168
20
-51.064606168829876
10
86.409698564834969
20
-57.254348726693593
10
89.697999298700068
20
-63.17733628077054
10
91.328741268997078
20
-56.203340155713789
10
94.610621798435545
20
-59.690338218242161
0
LWPOLYLINE
5
208
100
AcDbEntity
8
0
100
AcDbPolyline
90
3
70
1
43
0.0
10
92.986300032565168
20
-62.810283853135971
10
97.668407329657811
20
-67.785022856296905
10
102.34613693724657
20
-65.297653354716445
0
LWPOLYLINE
5
209
100
AcDbEntity
8
0
100
AcDbPolyline
90
4
70
1
43
0.0
10
109.67022766778122
20
-5.3789485951377713
10
109.67022766778122
20
-10.415421775682692
10
114.94653290454259
20
-10.415421775682692
10
114.94653290454259
20
-3.4602921454063562
0
LINE
5
210
100
AcDbEntity
8
0
100
AcDbLine
10
-8.7499999999999822
20
208.75
30
0
11
1.7922171683234672e-14
21
208.75
31
0
0
LINE
5
211
100
AcDbEntity
8
0
100
AcDbLine
10
-34.999999999999986
20
199.99999999999997
30
0
11
-34.999999999999986
21
208.74999999999997
31
0
0
LINE
5
212
100
AcDbEntity
8
0
100
AcDbLine
10
-26.249999999999982
20
199.99999999999997
30
0
11
-26.249999999999982
21
208.74999999999997
31
0
0
LINE
5
213
100
AcDbEntity
8
0
100
AcDbLine
10
-35
20
199.99999999999997
30
0
11
-34.999999999999986
21
203.88888888888886
31
0
0
LINE
5
214
100
AcDbEntity
8
0
100
AcDbLine
10
-8.7499999999999964
20
252.5
30
0
11
-8.7499999999999858
21
243.75
31
0
0
LINE
5
215
100
AcDbEntity
8
0
100
AcDbLine
10
-61.249999999999986
20
199.99999999999997
30
0
11
-61.249999999999986
21
208.74999999999997
31
0
0
LINE
5
216
100
AcDbEntity
8
0
100
AcDbLine
10
-8.7499999999999982
20
270
30
0
11
-8.7499999999999982
21
261.25
31
0
0
LINE
5
217
100
AcDbEntity
8
0
100
AcDbLine
10
-8.7499999999999982
20
200
30
0
11
-8.75
21
208.75
31
0
0
LINE
5
218
100
AcDbEntity
8
0
100
AcDbLine
10
0
20
270
30
0
11
-8.7499999999999982
21
270
31
0
0
LINE
5
219
100
AcDbEntity
8
0
100
AcDbLine
10
-43.749999999999986
20
199.99999999999997
30
0
11
-43.749999999999986
21
208.74999999999997
31
0
0
LINE
5
220
100
AcDbEntity
8
0
100
AcDbLine
10
-52.499999999999986
20
199.99999999999997
30
0
11
-52.499999999999986
21
208.74999999999997
31
0
0
LINE
5
221
100
AcDbEntity
8
0
100
AcDbLine
10
-3.8888888888888928
20
235
30
0
11
0
21
235
31
0
0
LINE
5
222
100
AcDbEntity
8
0
100
AcDbLine
10
1.6811948658609515e-14
20
217.5
30
0
11
-8.749999999999984
21
217.5
31
0
0
LINE
5
223
100
AcDbEntity
8
0
100
AcDbLine
10
1.4591502609359202e-14
20
235
30
0
11
-8.7499999999999858
21
235
31
0
0
LINE
5
224
100
AcDbEntity
8
0
100
AcDbLine
10
-8.749999999999984
20
217.5
30
0
11
-8.7499999999999822
21
208.75
31
0
0
LINE
5
225
100
AcDbEntity
8
0
100
AcDbLine
10
-8.7499999999999982
20
261.25
30
0
11
2.3790493384824817e-15
21
261.25
31
0
0
LINE
5
226
100
AcDbEntity
8
0
100
AcDbLine
10
-8.7499999999999858
20
235
30
0
11
-8.749999999999984
21
226.25
31
0
0
LINE
5
227
100
AcDbEntity
8
0
100
AcDbLine
10
3.4892723631076382e-15
20
252.5
30
0
11
-8.7499999999999964
21
252.5
31
0
0
LINE
5
228
100
AcDbEntity
8
0
100
AcDbLine
10
-8.7499999999999982
20
270
30
0
11
-3.6007105238363835
21
270
31
0
0
LWPOLYLINE
5
229
100
AcDbEntity
8
0
100
AcDbPolyline
90
2
70
1
43
0.0
10
1.586032892321686e-16
20
208.75
10
-8.75
20
208.75
0
LINE
5
230
100
AcDbEntity
8
0
100
AcDbLine
10
-17.499999999999996
20
200
30
0
11
-17.5
21
208.75
31
0
0
LINE
5
231
100
AcDbEntity
8
0
100
AcDbLine
10
-61.249999999999986
20
208.74999999999997
30
0
11
-52.499999999999986
21
208.74999999999997
31
0
0
LINE
5
232
100
AcDbEntity
8
0
100
AcDbLine
10
-43.749999999999986
20
208.74999999999997
30
0
11
-34.999999999999986
21
208.74999999999997
31
0
0
LINE
5
233
100
AcDbEntity
8
0
100
AcDbLine
10
-26.249999999999982
20
208.74999999999997
30
0
11
-17.5
21
208.75
31
0
0
LINE
5
234
100
AcDbEntity
8
0
100
AcDbLine
10
-8.7499999999999858
20
243.75
30
0
11
1.3481279584734047e-14
21
243.75
31
0
0
LINE
5
235
100
AcDbEntity
8
0
100
AcDbLine
10
-8.749999999999984
20
226.25
30
0
11
1.5701725633984359e-14
21
226.25
31
0
0
LINE
5
236
100
AcDbEntity
8
0
100
AcDbLine
10
120
20
0
30
0
11
120
21
-8.75
31
0
0
LINE
5
237
100
AcDbEntity
8
0
100
AcDbLine
10
120
20
0
30
0
11
120
21
-8.75
31
0
0
LINE
5
238
100
AcDbEntity
8
0
100
AcDbLine
10
120
20
0
30
0
11
128.75
21
2.6286226964120272e-16
31
0
0
LINE
5
239
100
AcDbEntity
8
0
100
AcDbLine
10
128.75
20
2.6286226964120272e-16
30
0
11
128.75
21
-8.7499999999999982
31
0
0
LINE
5
240
100
AcDbEntity
8
0
100
AcDbLine
10
128.75
20
-8.7499999999999982
30
0
11
120
21
-8.7500000000000018
31
0
0
LINE
5
241
100
AcDbEntity
8
0
100
AcDbLine
10
120
20
-8.75
30
0
11
120
21
-17.5
31
0
0
LINE
5
242
100
AcDbEntity
8
0
100
AcDbLine
10
120
20
-17.5
30
0
11
128.75
21
-17.5
31
0
0
LINE
5
243
100
AcDbEntity
8
0
100
AcDbLine
10
120
20
-17.5
30
0
11
120
21
-26.25
31
0
0
LINE
5
244
100
AcDbEntity
8
0
100
AcDbLine
10
120
20
-26.25
30
0
11
120
21
-35
31
0
0
LINE
5
245
100
AcDbEntity
8
0
100
AcDbLine
10
128.75
20
-26.25
30
0
11
120
21
-26.25
31
0
0
LINE
5
246
100
AcDbEntity
8
0
100
AcDbLine
10
128.75
20
-17.5
30
0
11
128.75
21
-26.25
31
0
0
LINE
5
247
100
AcDbEntity
8
0
100
AcDbLine
10
120
20
-35
30
0
11
128.75
21
-35
31
0
0
LINE
5
248
100
AcDbEntity
8
0
100
AcDbLine
10
120
20
-35
30
0
11
120
21
-43.75
31
0
0
LINE
5
249
100
AcDbEntity
8
0
100
AcDbLine
10
120
20
-43.75
30
0
11
120
21
-52.5
31
0
0
LINE
5
250
100
AcDbEntity
8
0
100
AcDbLine
10
128.75
20
-43.75
30
0
11
120
21
-43.75
31
0
0
LINE
5
251
100
AcDbEntity
8
0
100
AcDbLine
10
128.75
20
-35
30
0
11
128.75
21
-43.75
31
0
0
LINE
5
252
100
AcDbEntity
8
0
100
AcDbLine
10
120
20
-52.5
30
0
11
128.75
21
-52.5
31
0
0
LINE
5
253
100
AcDbEntity
8
0
100
AcDbLine
10
120
20
-52.5
30
0
11
120
21
-61.25
31
0
0
LINE
5
254
100
AcDbEntity
8
0
100
AcDbLine
10
120
20
-61.25
30
0
11
120
21
-70
31
0
0
LINE
5
255
100
AcDbEntity
8
0
100
AcDbLine
10
128.75
20
-61.25
30
0
11
120
21
-61.250000000000007
31
0
0
LINE
5
256
100
AcDbEntity
8
0
100
AcDbLine
10
128.75
20
-52.5
30
0
11
128.75
21
-61.25
31
0
0
LINE
5
257
100
AcDbEntity
8
0
100
AcDbLine
10
190
20
2.4492935982947077e-15
30
0
11
181.25
21
3.2479388425628764e-15
31
0
0
LINE
5
258
100
AcDbEntity
8
0
100
AcDbLine
10
181.25
20
3.2479388425628764e-15
30
0
11
181.25
21
-8.7499999999999982
31
0
0
LINE
5
259
100
AcDbEntity
8
0
100
AcDbLine
10
181.25
20
-8.7499999999999982
30
0
11
190
21
-8.7499999999999982
31
0
0
LINE
5
260
100
AcDbEntity
8
0
100
AcDbLine
10
190
20
-8.7499999999999982
30
0
11
190
21
2.2204460492503131e-15
31
0
0
LINE
5
261
100
AcDbEntity
8
0
100
AcDbLine
10
181.25
20
3.2479388425628764e-15
30
0
11
172.5
21
3.7837218171898427e-15
31
0
0
LINE
5
262
100
AcDbEntity
8
0
100
AcDbLine
10
172.5
20
-8.7499999999999982
30
0
11
172.5
21
2.2204460492503131e-15
31
0
0
LINE
5
263
100
AcDbEntity
8
0
100
AcDbLine
10
163.75
20
3.2479388425628764e-15
30
0
11
163.75
21
-8.7499999999999982
31
0
0
LINE
5
264
100
AcDbEntity
8
0
100
AcDbLine
10
163.75
20
-8.7499999999999982
30
0
11
172.5
21
-8.7499999999999982
31
0
0
LINE
5
265
100
AcDbEntity
8
0
100
AcDbLine
10
172.5
20
2.4492935982947077e-15
30
0
11
163.75
21
3.2479388425628764e-15
31
0
0
LINE
5
266
100
AcDbEntity
8
0
100
AcDbLine
10
163.75
20
3.2479388425628764e-15
30
0
11
155
21
3.7837218171898427e-15
31
0
0
LINE
5
267
100
AcDbEntity
8
0
100
AcDbLine
10
155
20
-8.7499999999999982
30
0
11
155
21
2.2204460492503131e-15
31
0
0
LINE
5
268
100
AcDbEntity
8
0
100
AcDbLine
10
146.25
20
3.2479388425628764e-15
30
0
11
146.25
21
-8.7499999999999982
31
0
0
LINE
5
269
100
AcDbEntity
8
0
100
AcDbLine
10
146.25
20
-8.7499999999999982
30
0
11
155
21
-8.7499999999999982
31
0
0
LINE
5
270
100
AcDbEntity
8
0
100
AcDbLine
10
155
20
2.4492935982947077e-15
30
0
11
146.25
21
3.2479388425628764e-15
31
0
0
LINE
5
271
100
AcDbEntity
8
0
100
AcDbLine
10
146.25
20
3.2479388425628764e-15
30
0
11
137.5
21
3.7837218171898427e-15
31
0
0
LINE
5
272
100
AcDbEntity
8
0
100
AcDbLine
10
137.5
20
-8.7499999999999982
30
0
11
137.5
21
2.2204460492503131e-15
31
0
0
LINE
5
273
100
AcDbEntity
8
0
100
AcDbLine
10
128.75
20
3.2479388425628764e-15
30
0
11
128.75
21
-8.7499999999999982
31
0
0
LINE
5
274
100
AcDbEntity
8
0
100
AcDbLine
10
128.75
20
-8.7499999999999982
30
0
11
137.5
21
-8.7499999999999982
31
0
0
LINE
5
275
100
AcDbEntity
8
0
100
AcDbLine
10
137.5
20
2.4492935982947077e-15
30
0
11
128.75
21
3.2479388425628764e-15
31
0
0
LINE
5
276
100
AcDbEntity
8
0
100
AcDbLine
10
128.75
20
3.2479388425628764e-15
30
0
11
120
21
3.7837218171898427e-15
31
0
0
LWPOLYLINE
5
277
100
AcDbEntity
8
0
100
AcDbPolyline
90
3
70
1
43
0.0
10
32.940663005572048
20
257.50346190828941
10
22.406708941156062
20
237.94040436008831
10
42.973000209777759
20
237.94040436008831
0
LWPOLYLINE
5
278
100
AcDbEntity
8
0
100
AcDbPolyline
90
3
70
1
43
0.0
10
71.815969671869169
20
237.94040436008831
10
82.349923736285149
20
257.50346190828941
10
92.382260940490852
20
237.94040436008831
0
LINE
5
279
100
AcDbEntity
8
0
100
AcDbLine
10
57.018272295665753
20
237.94040436008831
30
0
11
64.236661259667414
21
223.86454588028511
31
0
0
LINE
5
280
100
AcDbEntity
8
0
100
AcDbLine
10
64.236661259667414
20
223.86454588028511
30
0
11
60.000000000000007
21
223.86454588028511
31
0
0
LWPOLYLINE
5
281
100
AcDbEntity
8
0
100
AcDbPolyline
90
4
70
1
43
0.0
10
35.448747306623467
20
219.88219739251804
10
84.105582747021145
20
219.88219739251804
10
84.105582747021145
20
211.66666666666663
10
35.448747306623467
20
211.66666666666663
0
LINE
5
282
100
AcDbEntity
8
0
100
AcDbLine
10
35.448747306623467
20
215.77443202959233
30
0
11
84.105582747021145
21
215.77443202959233
31
0
0
LINE
5
283
100
AcDbEntity
8
0
100
AcDbLine
10
40.715724338831478
20
215.77443202959233
30
0
11
40.715724338831478
21
219.88219739251804
31
0
0
LINE
5
284
100
AcDbEntity
8
0
100
AcDbLine
10
46.735126661354904
20
215.77443202959233
30
0
11
46.735126661354904
21
219.88219739251804
31
0
0
LINE
5
285
100
AcDbEntity
8
0
100
AcDbLine
10
51.152881895079823
20
215.77443202959233
30
0
11
51.152881895079823
21
219.88219739251804
31
0
0
LINE
5
286
100
AcDbEntity
8
0
100
AcDbLine
10
55.858143572916461
20
215.77443202959233
30
0
11
55.858143572916461
21
219.88219739251804
31
0
0
LINE
5
287
100
AcDbEntity
8
0
100
AcDbLine
10
60.000000000000007
20
215.77443202959233
30
0
11
60.000000000000007
21
219.88219739251804
31
0
0
LINE
5
288
100
AcDbEntity
8
0
100
AcDbLine
10
63.999484502331171
20
219.88219739251804
30
0
11
63.999484502331171
21
215.77443202959233
31
0
0
LINE
5
289
100
AcDbEntity
8
0
100
AcDbLine
10
68.085632801505099
20
219.88219739251804
30
0
11
68.085632801505099
21
215.77443202959233
31
0
0
LINE
5
290
100
AcDbEntity
8
0
100
AcDbLine
10
72.171781100679013
20
219.88219739251804
30
0
11
72.171781100679013
21
215.77443202959233
31
0
0
LINE
5
291
100
AcDbEntity
8
0
100
AcDbLine
10
76.338414139079077
20
219.88219739251804
30
0
11
76.338414139079077
21
215.77443202959233
31
0
0
LINE
5
292
100
AcDbEntity
8
0
100
AcDbLine
10
80.294548628733821
20
219.88219739251804
30
0
11
80.294548628733821
21
215.77443202959233
31
0
0
LINE
5
293
100
AcDbEntity
8
0
100
AcDbLine
10
38.343085578189942
20
215.77443202959233
30
0
11
38.343085578189942
21
211.66666666666663
31
0
0
LINE
5
294
100
AcDbEntity
8
0
100
AcDbLine
10
43.89448951064491
20
215.77443202959233
30
0
11
43.89448951064491
21
211.66666666666663
31
0
0
LINE
5
295
100
AcDbEntity
8
0
100
AcDbLine
10
48.904293059445735
20
215.77443202959233
30
0
11
48.904293059445735
21
211.66666666666663
31
0
0
LINE
5
296
100
AcDbEntity
8
0
100
AcDbLine
10
53.553029685810472
20
215.77443202959233
30
0
11
53.553029685810472
21
211.66666666666663
31
0
0
LINE
5
297
100
AcDbEntity
8
0
100
AcDbLine
10
58.337166408088734
20
215.77443202959233
30
0
11
58.337166408088734
21
211.66666666666663
31
0
0
LINE
5
298
100
AcDbEntity
8
0
100
AcDbLine
10
62.083235728363221
20
215.77443202959233
30
0
11
62.083235728363221
21
211.66666666666663
31
0
0
LINE
5
299
100
AcDbEntity
8
0
100
AcDbLine
10
66.596572258814433
20
215.77443202959233
30
0
11
66.596572258814433
21
211.66666666666663
31
0
0
LINE
5
300
100
AcDbEntity
8
0
100
AcDbLine
10
70.68114181887276
20
215.77443202959233
30
0
11
70.68114181887276
21
211.66666666666663
31
0
0
LINE
5
301
100
AcDbEntity
8
0
100
AcDbLine
10
74.449777821799515
20
215.77443202959233
30
0
11
74.449777821799515
21
211.66666666666663
31
0
0
LINE
5
302
100
AcDbEntity
8
0
100
AcDbLine
10
78.489214016553333
20
215.77443202959233
30
0
11
78.489214016553333
21
211.66666666666663
31
0
0
LINE
5
303
100
AcDbEntity
8
0
100
AcDbLine
10
82.348116750089119
20
215.77443202959233
30
0
11
82.348116750089119
21
211.66666666666663
31
0
0
LWPOLYLINE
5
304
100
AcDbEntity
8
0
100
AcDbPolyline
90
4
70
1
43
0.0
10
22.866031073593604
20
260.89974237646049
10
43.634108570562674
20
260.89974237646049
10
43.634108570562674
20
262.22222222222223
10
22.866031073593604
20
262.22222222222223
0
LWPOLYLINE
5
305
100
AcDbEntity
8
0
100
AcDbPolyline
90
4
70
1
43
0.0
10
73.207365123264225
20
260.89974237646049
10
93.298284150411035
20
260.89974237646049
10
93.298284150411035
20
262.32999084986795
10
73.207365123264225
20
262.32999084986795
0
LINE
5
306
100
AcDbEntity
8
0
100
AcDbLine
10
-50.555555555555571
20
199.99999999999997
30
0
11
-50.555555555555564
21
6.8477509133768389e-33
31
0
0
LINE
5
307
100
AcDbEntity
8
0
100
AcDbLine
10
-31.111111111111107
20
199.99999999999997
30
0
11
-31.111111111111111
21
0
31
0
0
LINE
5
308
100
AcDbEntity
8
0
100
AcDbLine
10
-26.249999999999982
20
199.99999999999997
30
0
11
-26.249999999999993
21
-1.1102230246251565e-15
31
0
0
LINE
5
309
100
AcDbEntity
8
0
100
AcDbLine
10
-70
20
19.627259043871561
30
0
11
-50.555555555555564
21
19.627259043871561
31
0
0
LINE
5
310
100
AcDbEntity
8
0
100
AcDbLine
10
-31.111111111111107
20
19.627259043871543
30
0
11
-26.25
21
19.627259043871543
31
0
0
LINE
5
311
100
AcDbEntity
8
0
100
AcDbLine
10
-50.555555555555571
20
40.342862800211883
30
0
11
-31.111111111111111
21
40.342862800211883
31
0
0
LINE
5
312
100
AcDbEntity
8
0
100
AcDbLine
10
-26.25
20
40.342862800211883
30
0
11
0
21
40.342862800211883
31
0
0
LINE
5
313
100
AcDbEntity
8
0
100
AcDbLine
10
-70
20
59.332166243523865
30
0
11
-50.555555555555564
21
59.332166243523865
31
0
0
LINE
5
314
100
AcDbEntity
8
0
100
AcDbLine
10
-31.111111111111107
20
60.713206493946558
30
0
11
-26.25
21
60.713206493946558
31
0
0
LINE
5
315
100
AcDbEntity
8
0
100
AcDbLine
10
-50.555555555555571
20
80.393030062469848
30
0
11
-31.111111111111111
21
80.393030062469848
31
0
0
LINE
5
316
100
AcDbEntity
8
0
100
AcDbLine
10
-26.249999999999993
20
81.428810250286872
30
0
11
0
21
81.428810250286872
31
0
0
LINE
5
317
100
AcDbEntity
8
0
100
AcDbLine
10
-70
20
100
30
0
11
-50.555555555555571
21
99.999999999999986
31
0
0
LINE
5
318
100
AcDbEntity
8
0
100
AcDbLine
10
-31.111111111111107
20
99.999999999999986
30
0
11
-26.249999999999986
21
99.999999999999986
31
0
0
LINE
5
319
100
AcDbEntity
8
0
100
AcDbLine
10
-50.555555555555571
20
120.09793726212216
30
0
11
-31.111111111111107
21
120.09793726212216
31
0
0
LINE
5
320
100
AcDbEntity
8
0
100
AcDbLine
10
-26.249999999999996
20
120.09793726212216
30
0
11
0
21
120.09793726212216
31
0
0
LINE
5
321
100
AcDbEntity
8
0
100
AcDbLine
10
-70
20
140.46828095585681
30
0
11
-50.555555555555571
21
140.46828095585681
31
0
0
LINE
5
322
100
AcDbEntity
8
0
100
AcDbLine
10
-31.111111111111107
20
140.12302089325115
30
0
11
-26.249999999999993
21
140.12302089325115
31
0
0
LINE
5
323
100
AcDbEntity
8
0
100
AcDbLine
10
-50.555555555555571
20
159.80284446177447
30
0
11
-31.111111111111107
21
159.80284446177447
31
0
0
LINE
5
324
100
AcDbEntity
8
0
100
AcDbLine
10
-26.249999999999996
20
159.45758439916881
30
0
11
0
21
159.45758439916881
31
0
0
LINE
5
325
100
AcDbEntity
8
0
100
AcDbLine
10
-70
20
179.82792809290345
30
0
11
-50.555555555555571
21
179.82792809290345
31
0
0
LINE
5
326
100
AcDbEntity
8
0
100
AcDbLine
10
-31.111111111111107
20
179.90466604434957
30
0
11
-26.249999999999982
21
179.90466604434957
31
0
0
ENDSEC
0
SECTION
2
OBJECTS
0
DICTIONARY
5
C
100
AcDbDictionary
3
ACAD_GROUP
350
D
3
ACAD_MLINESTYLE
350
17
0
DICTIONARY
5
D
100
AcDbDictionary
0
DICTIONARY
5
1A
330
C
100
AcDbDictionary
0
DICTIONARY
5
17
100
AcDbDictionary
0
ENDSEC
0
EOF
